<?xml version="1.0" standalone="no"?>
<!DOCTYPE svg PUBLIC "-//W3C//DTD SVG 20010904//EN"
 "http://www.w3.org/TR/2001/REC-SVG-20010904/DTD/svg10.dtd">
<svg version="1.0" xmlns="http://www.w3.org/2000/svg"
 width="512.000000pt" height="512.000000pt" viewBox="0 0 512.000000 512.000000"
 preserveAspectRatio="xMidYMid meet">
<g transform="translate(0.000000,512.000000) scale(0.100000,-0.100000)"
fill="#000000" stroke="none">
<path d="M377 5105 c-173 -47 -316 -193 -362 -366 -22 -81 -22 -4277 0 -4358
46 -176 190 -320 366 -366 81 -22 4277 -22 4358 0 176 46 320 190 366 366 22
81 22 4277 0 4358 -46 176 -190 320 -366 366 -77 21 -4287 21 -4362 0z m1331
-1497 c154 -57 232 -206 232 -445 l0 -84 83 83 c124 127 239 176 392 166 235
-15 341 -202 306 -540 -15 -143 -41 -277 -107 -548 -57 -231 -64 -334 -27
-371 51 -51 115 -15 314 177 81 79 155 144 162 144 42 0 60 -106 32 -191 -34
-101 -121 -220 -220 -299 -257 -204 -545 -225 -649 -47 -56 95 -51 208 20 474
160 594 182 734 126 803 -24 29 -85 29 -143 -1 -159 -81 -366 -444 -447 -784
-24 -99 -26 -127 -25 -280 1 -94 -2 -184 -8 -202 -11 -35 -89 -112 -139 -138
-19 -10 -61 -20 -95 -22 -51 -4 -64 -2 -88 17 -47 38 -61 83 -60 200 0 112 5
132 143 640 72 265 110 455 117 595 7 155 -6 226 -52 272 -29 29 -39 33 -87
33 -227 0 -433 -330 -583 -933 -42 -168 -42 -189 -5 -397 31 -174 17 -275 -46
-332 -40 -35 -177 -92 -234 -96 -49 -4 -60 -1 -88 23 -103 87 -82 423 79 1264
69 360 69 476 -3 536 -53 45 -90 35 -217 -59 -116 -85 -167 -72 -158 39 6 76
32 128 95 187 101 94 244 144 392 135 181 -10 256 -86 283 -289 l12 -93 49 78
c87 141 210 251 320 287 99 32 233 31 324 -2z m2548 17 c198 -26 323 -78 430
-177 128 -120 181 -299 139 -476 -8 -34 -24 -81 -36 -104 -28 -54 -118 -149
-180 -189 -27 -17 -49 -32 -49 -34 0 -2 21 -15 46 -30 82 -48 190 -160 228
-236 47 -94 59 -159 54 -308 -3 -122 -4 -129 -41 -205 -72 -151 -230 -276
-422 -336 -160 -49 -400 -64 -585 -35 -190 28 -441 113 -566 190 -126 79 -202
185 -164 230 16 19 85 19 165 0 33 -8 63 -15 66 -15 4 0 9 46 13 103 21 311
136 753 260 991 62 120 141 209 200 225 52 14 63 4 72 -65 12 -104 -17 -303
-106 -719 -32 -150 -41 -219 -54 -414 -9 -129 -15 -236 -13 -237 1 -2 48 -12
104 -23 180 -37 328 -22 440 45 81 49 109 79 146 154 31 62 32 70 31 185 0
151 -22 245 -75 323 l-38 57 -118 0 c-185 1 -263 38 -263 125 0 47 27 82 82
106 34 14 71 18 173 19 l129 1 28 45 c60 96 72 265 26 371 -65 150 -291 220
-564 173 -117 -20 -193 -46 -339 -115 -163 -77 -225 -87 -225 -36 0 56 138
205 253 274 220 132 458 175 753 137z"/>
</g>
</svg>
