<svg version="1.0" xmlns="http://www.w3.org/2000/svg" width="682.667" height="682.667" viewBox="0 0 512 512">
  <path d="M37.7 1.5C20.4 6.2 6.1 20.8 1.5 38.1c-2.2 8.1-2.2 427.7 0 435.8 4.6 17.6 19 32 36.6 36.6 8.1 2.2 427.7 2.2 435.8 0 17.6-4.6 32-19 36.6-36.6 2.2-8.1 2.2-427.7 0-435.8-4.6-17.6-19-32-36.6-36.6-7.7-2.1-428.7-2.1-436.2 0zm133.1 149.7c15.4 5.7 23.2 20.6 23.2 44.5v8.4l8.3-8.3c12.4-12.7 23.9-17.6 39.2-16.6 23.5 1.5 34.1 20.2 30.6 54-1.5 14.3-4.1 27.7-10.7 54.8-5.7 23.1-6.4 33.4-2.7 37.1 5.1 5.1 11.5 1.5 31.4-17.7 8.1-7.9 15.5-14.4 16.2-14.4 4.2 0 6 10.6 3.2 19.1-3.4 10.1-12.1 22-22 29.9-25.7 20.4-54.5 22.5-64.9 4.7-5.6-9.5-5.1-20.8 2-47.4 16-59.4 18.2-73.4 12.6-80.3-2.4-2.9-8.5-2.9-14.3.1-15.9 8.1-36.6 44.4-44.7 78.4-2.4 9.9-2.6 12.7-2.5 28 .1 9.4-.2 18.4-.8 20.2-1.1 3.5-8.9 11.2-13.9 13.8-1.9 1-6.1 2-9.5 2.2-5.1.4-6.4.2-8.8-1.7-4.7-3.8-6.1-8.3-6-20 0-11.2.5-13.2 14.3-64 7.2-26.5 11-45.5 11.7-59.5.7-15.5-.6-22.6-5.2-27.2-2.9-2.9-3.9-3.3-8.7-3.3-22.7 0-43.3 33-58.3 93.3-4.2 16.8-4.2 18.9-.5 39.7 3.1 17.4 1.7 27.5-4.6 33.2-4 3.5-17.7 9.2-23.4 9.6-4.9.4-6 .1-8.8-2.3-10.3-8.7-8.2-42.3 7.9-126.4 6.9-36 6.9-47.6-.3-53.6-5.3-4.5-9-3.5-21.7 5.9-11.6 8.5-16.7 7.2-15.8-3.9.6-7.6 3.2-12.8 9.5-18.7 10.1-9.4 24.4-14.4 39.2-13.5 18.1 1 25.6 8.6 28.3 28.9l1.2 9.3 4.9-7.8c8.7-14.1 21-25.1 32-28.7 9.9-3.2 23.3-3.1 32.4.2zm254.8-1.7c19.8 2.6 32.3 7.8 43 17.7 12.8 12 18.1 29.9 13.9 47.6-.8 3.4-2.4 8.1-3.6 10.4-2.8 5.4-11.8 14.9-18 18.9-2.7 1.7-4.9 3.2-4.9 3.4 0 .2 2.1 1.5 4.6 3 8.2 4.8 19 16 22.8 23.6 4.7 9.4 5.9 15.9 5.4 30.8-.3 12.2-.4 12.9-4.1 20.5-7.2 15.1-23 27.6-42.2 33.6-16 4.9-40 6.4-58.5 3.5-19-2.8-44.1-11.3-56.6-19-12.6-7.9-20.2-18.5-16.4-23 1.6-1.9 8.5-1.9 16.5 0 3.3.8 6.3 1.5 6.6 1.5.4 0 .9-4.6 1.3-10.3 2.1-31.1 13.6-75.3 26-99.1 6.2-12 14.1-20.9 20-22.5 5.2-1.4 6.3-.4 7.2 6.5 1.2 10.4-1.7 30.3-10.6 71.9-3.2 15-4.1 21.9-5.4 41.4-.9 12.9-1.5 23.6-1.3 23.7.1.2 4.8 1.2 10.4 2.3 18 3.7 32.8 2.2 44-4.5 8.1-4.9 10.9-7.9 14.6-15.4 3.1-6.2 3.2-7 3.1-18.5 0-15.1-2.2-24.5-7.5-32.3l-3.8-5.7h-11.8c-18.5-.1-26.3-3.8-26.3-12.5 0-4.7 2.7-8.2 8.2-10.6 3.4-1.4 7.1-1.8 17.3-1.9l12.9-.1 2.8-4.5c6-9.6 7.2-26.5 2.6-37.1-6.5-15-29.1-22-56.4-17.3-11.7 2-19.3 4.6-33.9 11.5-16.3 7.7-22.5 8.7-22.5 3.6 0-5.6 13.8-20.5 25.3-27.4 22-13.2 45.8-17.5 75.3-13.7z"/>
</svg>
